<?xml version="1.0" encoding="UTF-8" standalone="no"?>
<svg
   xmlns:dc="http://purl.org/dc/elements/1.1/"
   xmlns:cc="http://creativecommons.org/ns#"
   xmlns:rdf="http://www.w3.org/1999/02/22-rdf-syntax-ns#"
   xmlns:svg="http://www.w3.org/2000/svg"
   xmlns="http://www.w3.org/2000/svg"
   viewBox="0 0 343.60388 152.77933"
   height="152.8"
   width="343.6"
   xml:space="preserve"
   id="svg2"
   version="1.1"><metadata
     id="metadata8"><rdf:RDF><cc:Work
         rdf:about=""><dc:format>image/svg+xml</dc:format><dc:type
           rdf:resource="http://purl.org/dc/dcmitype/StillImage" /></cc:Work></rdf:RDF></metadata><defs
     id="defs6"><clipPath
       id="clipPath14"
       clipPathUnits="userSpaceOnUse"><path
         id="path12"
         d="M -1 -1 H 256.7 V 113.6 H -1 Z" /></clipPath></defs><g
     clip-path="url(#clipPath14)"
     transform="matrix(-1.3,0,0,1.3,325.5,-14.3)"
     id="g10"><g
       transform="matrix(1.2,0,0,-1.1,7.3,126.6)"
       id="g16"><path
         id="path18"
         style="fill: #282929; fill-rule: evenodd; stroke: #363535; stroke-width: 0.6; stroke-linecap: butt; stroke-linejoin: miter; stroke-dasharray: none; fill-opacity: 1; stroke-miterlimit: 22.92558479; stroke-opacity: 1"
         d="M -13.5 115.4 H 241.7 V 3.4 H -13.5 Z" /><path
         id="path20"
         style="fill: #ffffff; fill-rule: nonzero; stroke: none; fill-opacity: 1"
         d="M 3.4 20.8 l 4.1 10.7 h 1.5 l 4.4 -10.7 h -1.6 l -1.3 3.3 h -4.5 l -1.2 -3.3 z m 3.1 4.4 h 3.6 l -1.1 3 c -0.3 0.9 -0.6 1.6 -0.8 2.2 c -0.1 -0.7 -0.3 -1.4 -0.6 -2.1 z m 7.4 -2.1 l 1.3 0.2 c 0.1 -0.5 0.3 -0.9 0.6 -1.2 c 0.3 -0.3 0.8 -0.4 1.4 -0.4 c 0.6 0 1.1 0.1 1.3 0.4 c 0.3 0.2 0.4 0.5 0.4 0.9 c 0 0.3 -0.1 0.5 -0.4 0.7 c -0.2 0.1 -0.6 0.3 -1.3 0.4 c -1 0.2 -1.6 0.5 -2 0.6 c -0.4 0.2 -0.7 0.4 -0.9 0.7 c -0.2 0.3 -0.3 0.7 -0.3 1 c 0 0.3 0.1 0.7 0.2 1 c 0.2 0.3 0.4 0.5 0.6 0.7 c 0.2 0.1 0.5 0.3 0.8 0.4 c 0.4 0.1 0.7 0.2 1.1 0.2 c 0.6 0 1.1 -0.1 1.6 -0.3 c 0.5 -0.2 0.8 -0.4 1 -0.7 c 0.2 -0.3 0.4 -0.7 0.5 -1.2 l -1.3 -0.2 c -0.1 0.4 -0.2 0.7 -0.5 0.9 c -0.3 0.2 -0.7 0.3 -1.2 0.3 c -0.6 0 -1 -0.1 -1.3 -0.3 c -0.3 -0.2 -0.4 -0.4 -0.4 -0.7 c 0 -0.2 0.1 -0.3 0.2 -0.5 c 0.1 -0.1 0.3 -0.3 0.5 -0.4 c 0.1 0 0.5 -0.2 1.2 -0.3 c 0.9 -0.2 1.6 -0.5 2 -0.6 c 0.4 -0.2 0.7 -0.4 0.9 -0.7 c 0.2 -0.3 0.3 -0.7 0.3 -1.1 c 0 -0.4 -0.1 -0.9 -0.4 -1.2 c -0.3 -0.4 -0.6 -0.7 -1.1 -0.9 c -0.5 -0.2 -1 -0.3 -1.6 -0.3 c -1 0 -1.8 0.2 -2.3 0.6 c -0.5 0.4 -0.9 1 -1 1.9 z m 7.5 0 l 1.3 0.2 c 0.1 -0.5 0.3 -0.9 0.6 -1.2 c 0.3 -0.3 0.8 -0.4 1.4 -0.4 c 0.6 0 1.1 0.1 1.3 0.4 c 0.3 0.2 0.4 0.5 0.4 0.9 c 0 0.3 -0.1 0.5 -0.4 0.7 c -0.2 0.1 -0.6 0.3 -1.3 0.4 c -1 0.2 -1.6 0.5 -2 0.6 c -0.4 0.2 -0.7 0.4 -0.9 0.7 c -0.2 0.3 -0.3 0.7 -0.3 1 c 0 0.3 0.1 0.7 0.2 1 c 0.2 0.3 0.4 0.5 0.6 0.7 c 0.2 0.1 0.5 0.3 0.8 0.4 c 0.4 0.1 0.7 0.2 1.1 0.2 c 0.6 0 1.1 -0.1 1.6 -0.3 c 0.5 -0.2 0.8 -0.4 1 -0.7 c 0.2 -0.3 0.4 -0.7 0.5 -1.2 l -1.3 -0.2 c -0.1 0.4 -0.2 0.7 -0.5 0.9 c -0.3 0.2 -0.7 0.3 -1.2 0.3 c -0.6 0 -1 -0.1 -1.3 -0.3 c -0.3 -0.2 -0.4 -0.4 -0.4 -0.7 c 0 -0.2 0.1 -0.3 0.2 -0.5 c 0.1 -0.1 0.3 -0.3 0.5 -0.4 c 0.1 0 0.5 -0.2 1.2 -0.3 c 0.9 -0.2 1.6 -0.5 2 -0.6 c 0.4 -0.2 0.7 -0.4 0.9 -0.7 c 0.2 -0.3 0.3 -0.7 0.3 -1.1 c 0 -0.4 -0.1 -0.9 -0.4 -1.2 c -0.3 -0.4 -0.6 -0.7 -1.1 -0.9 c -0.5 -0.2 -1 -0.3 -1.6 -0.3 c -1 0 -1.8 0.2 -2.3 0.6 c -0.5 0.4 -0.9 1 -1 1.9 z m 8 6.9 v 1.5 h 1.3 v -1.5 z m 0 -9.2 v 7.8 h 1.3 v -7.8 z m 2.8 2.3 l 1.3 0.2 c 0.1 -0.5 0.3 -0.9 0.6 -1.2 c 0.3 -0.3 0.8 -0.4 1.4 -0.4 c 0.6 0 1.1 0.1 1.3 0.4 c 0.3 0.2 0.4 0.5 0.4 0.9 c 0 0.3 -0.1 0.5 -0.4 0.7 c -0.2 0.1 -0.6 0.3 -1.3 0.4 c -1 0.2 -1.6 0.5 -2 0.6 c -0.4 0.2 -0.7 0.4 -0.9 0.7 c -0.2 0.3 -0.3 0.7 -0.3 1 c 0 0.3 0.1 0.7 0.2 1 c 0.2 0.3 0.4 0.5 0.6 0.7 c 0.2 0.2 0.5 0.3 0.8 0.4 c 0.4 0.1 0.7 0.2 1.1 0.2 c 0.6 0 1.1 -0.1 1.6 -0.3 c 0.5 -0.2 0.8 -0.4 1 -0.7 c 0.2 -0.3 0.4 -0.7 0.5 -1.2 l -1.3 -0.2 c -0.1 0.4 -0.2 0.7 -0.5 0.9 c -0.3 0.2 -0.7 0.3 -1.2 0.3 c -0.6 0 -1 -0.1 -1.3 -0.3 c -0.3 -0.2 -0.4 -0.4 -0.4 -0.7 c 0 -0.2 0.1 -0.3 0.2 -0.5 c 0.1 -0.1 0.3 -0.3 0.5 -0.4 c 0.1 0 0.5 -0.2 1.2 -0.3 c 0.9 -0.2 1.6 -0.5 2 -0.6 c 0.4 -0.2 0.7 -0.4 0.9 -0.7 c 0.2 -0.3 0.3 -0.7 0.3 -1.1 c 0 -0.4 -0.1 -0.9 -0.4 -1.2 c -0.3 -0.4 -0.6 -0.7 -1.1 -0.9 c -0.5 -0.2 -1 -0.3 -1.6 -0.3 c -1 0 -1.8 0.2 -2.3 0.6 c -0.5 0.4 -0.9 1 -1 1.9 z m 10.9 -1.1 l 0.2 -1.2 c -0.4 -0.1 -0.7 -0.1 -1 -0.1 c -0.5 0 -0.9 0.1 -1.1 0.2 c -0.3 0.1 -0.4 0.3 -0.6 0.6 c -0.1 0.2 -0.2 0.8 -0.2 1.6 v 4.5 h -1 v 1 h 1 v 1.9 l 1.3 0.8 v -2.7 h 1.3 v -1 h -1.3 v -4.5 c 0 -0.4 0 -0.6 0.1 -0.7 c 0 -0.1 0.1 -0.2 0.2 -0.3 c 0.1 -0.1 0.3 -0.1 0.5 -0.1 c 0.1 0 0.3 0 0.6 0.1 z m 6.6 1.3 l 1.4 -0.2 c -0.2 -0.8 -0.6 -1.4 -1.2 -1.9 c -0.6 -0.4 -1.3 -0.7 -2.2 -0.7 c -1.1 0 -2 0.3 -2.7 1 c -0.7 0.7 -1 1.7 -1 2.9 c 0 1.3 0.3 2.3 1 3 c 0.7 0.7 1.5 1.1 2.6 1.1 c 1 0 1.9 -0.4 2.5 -1.1 c 0.7 -0.7 1 -1.7 1 -3 c 0 -0.1 0 -0.2 0 -0.4 h -5.8 c 0 -0.9 0.3 -1.5 0.7 -2 c 0.4 -0.5 1 -0.7 1.6 -0.7 c 0.5 0 0.9 0.1 1.2 0.4 c 0.3 0.3 0.6 0.7 0.8 1.2 z m -4.3 2.1 h 4.3 c -0.1 0.7 -0.2 1.1 -0.5 1.5 c -0.4 0.5 -1 0.8 -1.6 0.8 c -0.6 0 -1.1 -0.2 -1.5 -0.6 C 45.7 26.6 45.5 26.1 45.5 25.4 Z m 2.2 5.3 l -0.8 -1.2 h -1.5 l 1.6 2 h 1.4 l 1.6 -2 h -1.5 z m 5.2 -10 v 7.8 h 1.2 V 27.4 c 0.6 0.9 1.4 1.3 2.5 1.3 c 0.5 0 0.9 -0.1 1.3 -0.3 c 0.4 -0.2 0.7 -0.4 0.9 -0.7 c 0.2 -0.3 0.3 -0.6 0.4 -1 c 0 -0.2 0.1 -0.7 0.1 -1.3 V 20.8 H 57.8 v 4.7 c 0 0.5 -0.1 0.9 -0.2 1.2 c -0.1 0.3 -0.3 0.5 -0.5 0.6 c -0.3 0.2 -0.6 0.2 -0.9 0.2 c -0.6 0 -1 -0.2 -1.5 -0.5 c -0.4 -0.4 -0.6 -1 -0.6 -2 v -4.2 z m 13.4 2.8 l 1.3 -0.2 c -0.1 -0.9 -0.5 -1.6 -1.1 -2.1 c -0.6 -0.5 -1.3 -0.8 -2.2 -0.8 c -1.1 0 -1.9 0.3 -2.6 1 c -0.6 0.7 -1 1.7 -1 3 c 0 0.8 0.1 1.6 0.4 2.2 c 0.3 0.6 0.7 1.1 1.3 1.4 c 0.6 0.3 1.2 0.5 1.9 0.5 c 0.8 0 1.5 -0.2 2.1 -0.6 c 0.5 -0.4 0.9 -1 1 -1.8 l -1.3 -0.2 c -0.1 0.5 -0.3 0.9 -0.6 1.2 c -0.3 0.3 -0.7 0.4 -1.1 0.4 c -0.7 0 -1.2 -0.2 -1.6 -0.7 c -0.4 -0.5 -0.6 -1.2 -0.6 -2.3 c 0 -1 0.2 -1.8 0.6 -2.3 c 0.4 -0.5 0.9 -0.7 1.6 -0.7 c 0.5 0 0.9 0.2 1.3 0.5 c 0.3 0.3 0.6 0.8 0.7 1.5 z m 2.4 6.4 v 1.5 h 1.3 v -1.5 z m 0 -9.2 v 7.8 h 1.3 v -7.8 z m 8.4 1 c -0.5 -0.4 -1 -0.7 -1.4 -0.9 c -0.5 -0.2 -0.9 -0.3 -1.5 -0.3 c -0.9 0 -1.5 0.2 -2 0.6 c -0.5 0.4 -0.7 1 -0.7 1.6 c 0 0.4 0.1 0.7 0.3 1 c 0.2 0.3 0.4 0.6 0.7 0.8 c 0.3 0.2 0.6 0.3 1 0.4 c 0.3 0.1 0.6 0.1 1.2 0.2 c 1.1 0.1 1.9 0.3 2.4 0.5 c 0 0.2 0 0.3 0 0.3 c 0 0.5 -0.1 0.9 -0.4 1.1 c -0.3 0.3 -0.8 0.4 -1.5 0.4 c -0.6 0 -1.1 -0.1 -1.4 -0.3 c -0.3 -0.2 -0.5 -0.6 -0.7 -1.2 l -1.3 0.2 c 0.1 0.5 0.3 1 0.6 1.3 c 0.3 0.3 0.7 0.6 1.2 0.8 c 0.5 0.2 1.1 0.3 1.8 0.3 c 0.7 0 1.2 -0.1 1.6 -0.2 c 0.4 -0.2 0.7 -0.4 0.9 -0.6 c 0.2 -0.2 0.3 -0.5 0.4 -0.9 c 0 -0.2 0.1 -0.6 0.1 -1.2 V 24 c 0 -1.2 0 -2 0.1 -2.3 c 0.1 -0.3 0.2 -0.6 0.3 -0.9 h -1.4 c -0.1 0.3 -0.2 0.6 -0.3 1 z m -0.1 2.9 c -0.5 -0.2 -1.2 -0.4 -2.2 -0.5 c -0.5 -0.1 -0.9 -0.2 -1.2 -0.3 c -0.2 -0.1 -0.4 -0.2 -0.5 -0.4 c -0.1 -0.2 -0.2 -0.4 -0.2 -0.6 c 0 -0.4 0.1 -0.6 0.4 -0.9 c 0.3 -0.2 0.7 -0.3 1.2 -0.3 c 0.5 0 1 0.1 1.4 0.3 c 0.4 0.2 0.7 0.5 0.9 0.9 c 0.1 0.3 0.2 0.7 0.2 1.3 z m 10.2 -3.9 v 9.5 h -3.5 v 1.3 h 8.5 v -1.3 h -3.6 v -9.5 z m 11.6 2.5 l 1.4 -0.2 c -0.2 -0.8 -0.6 -1.4 -1.2 -1.9 c -0.6 -0.4 -1.3 -0.7 -2.2 -0.7 c -1.1 0 -2 0.3 -2.7 1 c -0.7 0.7 -1 1.7 -1 2.9 c 0 1.3 0.3 2.3 1 3 c 0.7 0.7 1.5 1.1 2.6 1.1 c 1 0 1.9 -0.4 2.5 -1.1 c 0.7 -0.7 1 -1.7 1 -3 c 0 -0.1 0 -0.2 0 -0.4 h -5.8 c 0 -0.9 0.3 -1.5 0.7 -2 c 0.4 -0.5 1 -0.7 1.6 -0.7 c 0.5 0 0.9 0.1 1.2 0.4 c 0.3 0.3 0.6 0.7 0.8 1.2 z m -4.3 2.1 h 4.3 c -0.1 0.7 -0.2 1.1 -0.5 1.5 c -0.4 0.5 -1 0.8 -1.6 0.8 c -0.6 0 -1.1 -0.2 -1.5 -0.6 C 94.7 26.6 94.4 26.1 94.4 25.4 Z m 1.4 4.1 l 1 2 h 1.7 l -1.6 -2 z m 11 -5.9 l 1.3 -0.2 c -0.1 -0.9 -0.5 -1.6 -1.1 -2.1 c -0.6 -0.5 -1.3 -0.8 -2.2 -0.8 c -1.1 0 -1.9 0.3 -2.6 1 c -0.6 0.7 -1 1.7 -1 3 c 0 0.8 0.1 1.6 0.4 2.2 c 0.3 0.6 0.7 1.1 1.3 1.4 c 0.6 0.3 1.2 0.5 1.9 0.5 c 0.8 0 1.5 -0.2 2.1 -0.6 c 0.5 -0.4 0.9 -1 1 -1.8 l -1.3 -0.2 c -0.1 0.5 -0.3 0.9 -0.6 1.2 c -0.3 0.3 -0.7 0.4 -1.1 0.4 c -0.7 0 -1.2 -0.2 -1.6 -0.7 c -0.4 -0.5 -0.6 -1.2 -0.6 -2.3 c 0 -1 0.2 -1.8 0.6 -2.3 c 0.4 -0.5 0.9 -0.7 1.6 -0.7 c 0.5 0 0.9 0.2 1.3 0.5 c 0.3 0.3 0.6 0.8 0.7 1.5 z m 2.4 -2.8 v 7.8 h 1.2 V 27.4 c 0.6 0.9 1.4 1.3 2.5 1.3 c 0.5 0 0.9 -0.1 1.3 -0.3 c 0.4 -0.2 0.7 -0.4 0.9 -0.7 c 0.2 -0.3 0.3 -0.6 0.4 -1 c 0 -0.2 0.1 -0.7 0.1 -1.3 v -4.8 h -1.3 v 4.7 c 0 0.5 0 0.9 -0.2 1.2 c -0.1 0.3 -0.3 0.5 -0.5 0.6 c -0.3 0.2 -0.6 0.2 -0.9 0.2 c -0.6 0 -1 -0.2 -1.5 -0.5 c -0.4 -0.4 -0.6 -1 -0.6 -2 v -4.2 z m 8.4 9.2 v 1.5 h 1.3 v -1.5 z m 0 -9.2 v 7.8 h 1.3 v -7.8 z m 8.4 2.8 l 1.3 -0.2 c -0.1 -0.9 -0.5 -1.6 -1.1 -2.1 c -0.6 -0.5 -1.3 -0.8 -2.2 -0.8 c -1.1 0 -1.9 0.3 -2.6 1 c -0.6 0.7 -1 1.7 -1 3 c 0 0.8 0.1 1.6 0.4 2.2 c 0.3 0.6 0.7 1.1 1.3 1.4 c 0.6 0.3 1.2 0.5 1.9 0.5 c 0.8 0 1.5 -0.2 2.1 -0.6 c 0.5 -0.4 0.9 -1 1 -1.8 l -1.3 -0.2 c -0.1 0.5 -0.3 0.9 -0.6 1.2 c -0.3 0.3 -0.7 0.4 -1.1 0.4 c -0.7 0 -1.2 -0.2 -1.6 -0.7 c -0.4 -0.5 -0.6 -1.2 -0.6 -2.3 c 0 -1 0.2 -1.8 0.6 -2.3 c 0.4 -0.5 0.9 -0.7 1.6 -0.7 c 0.5 0 0.9 0.2 1.3 0.5 c 0.3 0.3 0.6 0.8 0.7 1.5 z m 7.5 -1.9 c -0.5 -0.4 -1 -0.7 -1.4 -0.9 c -0.5 -0.2 -0.9 -0.3 -1.5 -0.3 c -0.9 0 -1.5 0.2 -2 0.6 c -0.5 0.4 -0.7 1 -0.7 1.6 c 0 0.4 0.1 0.7 0.3 1 c 0.2 0.3 0.4 0.6 0.7 0.8 c 0.3 0.2 0.6 0.3 1 0.4 c 0.3 0.1 0.6 0.1 1.2 0.2 c 1.1 0.1 1.9 0.3 2.4 0.5 c 0 0.2 0 0.3 0 0.3 c 0 0.5 -0.1 0.9 -0.4 1.1 c -0.3 0.3 -0.8 0.4 -1.5 0.4 c -0.6 0 -1.1 -0.1 -1.4 -0.3 c -0.3 -0.2 -0.5 -0.6 -0.7 -1.2 l -1.3 0.2 c 0.1 0.5 0.3 1 0.6 1.3 c 0.3 0.3 0.7 0.6 1.2 0.8 c 0.5 0.2 1.1 0.3 1.8 0.3 c 0.7 0 1.2 -0.1 1.6 -0.2 c 0.4 -0.2 0.7 -0.4 0.9 -0.6 c 0.2 -0.2 0.3 -0.5 0.4 -0.9 c 0 -0.2 0.1 -0.6 0.1 -1.2 V 24 c 0 -1.2 0 -2 0.1 -2.3 c 0.1 -0.3 0.2 -0.6 0.3 -0.9 h -1.4 c -0.1 0.3 -0.2 0.6 -0.3 1 z m -0.1 2.9 c -0.5 -0.2 -1.2 -0.4 -2.2 -0.5 c -0.5 -0.1 -0.9 -0.2 -1.2 -0.3 c -0.2 -0.1 -0.4 -0.2 -0.5 -0.4 c -0.1 -0.2 -0.2 -0.4 -0.2 -0.6 c 0 -0.4 0.1 -0.6 0.4 -0.9 c 0.3 -0.2 0.7 -0.3 1.2 -0.3 c 0.5 0 1 0.1 1.4 0.3 c 0.4 0.2 0.7 0.5 0.9 0.9 c 0.1 0.3 0.2 0.7 0.2 1.3 z m 7.7 -3.9 v 10.7 h 7.8 v -1.3 h -6.3 v -3.3 h 5.9 v -1.3 h -5.9 v -3.7 h 6.6 v -1.3 z m 9.3 2.3 l 1.3 0.2 c 0.1 -0.5 0.3 -0.9 0.6 -1.2 c 0.3 -0.3 0.8 -0.4 1.4 -0.4 c 0.6 0 1.1 0.1 1.3 0.4 c 0.3 0.2 0.4 0.5 0.4 0.9 c 0 0.3 -0.1 0.5 -0.4 0.7 c -0.2 0.1 -0.6 0.3 -1.3 0.4 c -1 0.2 -1.6 0.5 -2 0.6 c -0.4 0.2 -0.7 0.4 -0.9 0.7 c -0.2 0.3 -0.3 0.7 -0.3 1 c 0 0.3 0.1 0.7 0.2 1 c 0.2 0.3 0.4 0.5 0.6 0.7 c 0.2 0.1 0.5 0.3 0.8 0.4 c 0.4 0.1 0.7 0.2 1.1 0.2 c 0.6 0 1.1 -0.1 1.6 -0.3 c 0.5 -0.2 0.8 -0.4 1 -0.7 c 0.2 -0.3 0.4 -0.7 0.5 -1.2 l -1.3 -0.2 c -0.1 0.4 -0.2 0.7 -0.5 0.9 c -0.3 0.2 -0.7 0.3 -1.2 0.3 c -0.6 0 -1 -0.1 -1.3 -0.3 c -0.3 -0.2 -0.4 -0.4 -0.4 -0.7 c 0 -0.2 0.1 -0.3 0.2 -0.5 c 0.1 -0.1 0.3 -0.3 0.5 -0.4 c 0.1 0 0.5 -0.2 1.2 -0.3 c 0.9 -0.2 1.6 -0.5 2 -0.6 c 0.4 -0.2 0.7 -0.4 0.9 -0.7 c 0.2 -0.3 0.3 -0.7 0.3 -1.1 c 0 -0.4 -0.1 -0.9 -0.4 -1.2 c -0.3 -0.4 -0.6 -0.7 -1.1 -0.9 c -0.5 -0.2 -1 -0.3 -1.6 -0.3 c -1 0 -1.8 0.2 -2.3 0.6 c -0.5 0.4 -0.9 1 -1 1.9 z m 8 -5.3 v 10.8 h 1.2 v -1 c 0.3 0.4 0.6 0.7 1 0.9 c 0.4 0.2 0.8 0.3 1.3 0.3 c 0.7 0 1.3 -0.2 1.8 -0.5 c 0.5 -0.3 0.9 -0.8 1.2 -1.4 c 0.3 -0.6 0.4 -1.3 0.4 -2 c 0 -0.8 -0.1 -1.5 -0.4 -2.1 c -0.3 -0.6 -0.7 -1.1 -1.2 -1.5 c -0.5 -0.3 -1.1 -0.5 -1.7 -0.5 c -0.4 0 -0.8 0.1 -1.2 0.3 c -0.4 0.2 -0.6 0.4 -0.9 0.7 V 17.8 Z m 1.2 6.8 c 0 -1 0.2 -1.7 0.6 -2.2 c 0.4 -0.5 0.9 -0.7 1.5 -0.7 c 0.6 0 1.1 0.2 1.5 0.7 c 0.4 0.5 0.6 1.3 0.6 2.3 c 0 1 -0.2 1.7 -0.6 2.2 c -0.4 0.5 -0.9 0.7 -1.5 0.7 c -0.6 0 -1.1 -0.3 -1.5 -0.8 c -0.4 -0.5 -0.6 -1.3 -0.6 -2.3 z m 12.5 -1.3 l 1.4 -0.2 c -0.2 -0.8 -0.6 -1.4 -1.2 -1.9 c -0.6 -0.4 -1.3 -0.7 -2.2 -0.7 c -1.1 0 -2 0.3 -2.7 1 c -0.7 0.7 -1 1.7 -1 2.9 c 0 1.3 0.3 2.3 1 3 c 0.7 0.7 1.5 1.1 2.6 1.1 c 1 0 1.9 -0.4 2.5 -1.1 c 0.7 -0.7 1 -1.7 1 -3 c 0 -0.1 0 -0.2 0 -0.4 h -5.8 c 0 -0.9 0.3 -1.5 0.7 -2 c 0.4 -0.5 1 -0.7 1.6 -0.7 c 0.5 0 0.9 0.1 1.2 0.4 c 0.3 0.3 0.6 0.7 0.8 1.2 z m -4.3 2.1 h 4.3 c -0.1 0.7 -0.2 1.1 -0.5 1.5 c -0.4 0.5 -1 0.8 -1.6 0.8 c -0.6 0 -1.1 -0.2 -1.5 -0.6 c -0.4 -0.4 -0.6 -0.9 -0.7 -1.6 z m 12.4 -1.8 l 1.3 -0.2 c -0.1 -0.9 -0.5 -1.6 -1.1 -2.1 c -0.6 -0.5 -1.3 -0.8 -2.2 -0.8 c -1.1 0 -1.9 0.3 -2.6 1 c -0.6 0.7 -1 1.7 -1 3 c 0 0.8 0.1 1.6 0.4 2.2 c 0.3 0.6 0.7 1.1 1.3 1.4 c 0.6 0.3 1.2 0.5 1.9 0.5 c 0.8 0 1.5 -0.2 2.1 -0.6 c 0.5 -0.4 0.9 -1 1 -1.8 l -1.3 -0.2 c -0.1 0.5 -0.3 0.9 -0.6 1.2 c -0.3 0.3 -0.7 0.4 -1.1 0.4 c -0.7 0 -1.2 -0.2 -1.6 -0.7 c -0.4 -0.5 -0.6 -1.2 -0.6 -2.3 c 0 -1 0.2 -1.8 0.6 -2.3 c 0.4 -0.5 0.9 -0.7 1.6 -0.7 c 0.5 0 0.9 0.2 1.3 0.5 c 0.3 0.3 0.6 0.8 0.7 1.5 z m 2.4 6.4 v 1.5 h 1.3 v -1.5 z m 0 -9.2 v 7.8 h 1.3 v -7.8 z m 8.4 1 c -0.5 -0.4 -1 -0.7 -1.4 -0.9 c -0.5 -0.2 -0.9 -0.3 -1.5 -0.3 c -0.9 0 -1.5 0.2 -2 0.6 c -0.5 0.4 -0.7 1 -0.7 1.6 c 0 0.4 0.1 0.7 0.3 1 c 0.2 0.3 0.4 0.6 0.7 0.8 c 0.3 0.2 0.6 0.3 1 0.4 c 0.3 0.1 0.6 0.1 1.2 0.2 c 1.1 0.1 1.9 0.3 2.4 0.5 c 0 0.2 0 0.3 0 0.3 c 0 0.5 -0.1 0.9 -0.4 1.1 c -0.3 0.3 -0.8 0.4 -1.5 0.4 c -0.6 0 -1.1 -0.1 -1.4 -0.3 c -0.3 -0.2 -0.5 -0.6 -0.7 -1.2 l -1.3 0.2 c 0.1 0.5 0.3 1 0.6 1.3 c 0.3 0.3 0.7 0.6 1.2 0.8 c 0.5 0.2 1.1 0.3 1.8 0.3 c 0.7 0 1.2 -0.1 1.6 -0.2 c 0.4 -0.2 0.7 -0.4 0.9 -0.6 c 0.2 -0.2 0.3 -0.5 0.4 -0.9 c 0 -0.2 0.1 -0.6 0.1 -1.2 V 24 c 0 -1.2 0 -2 0.1 -2.3 c 0.1 -0.3 0.2 -0.6 0.3 -0.9 h -1.4 c -0.1 0.3 -0.2 0.6 -0.3 1 z m -0.1 2.9 c -0.5 -0.2 -1.2 -0.4 -2.2 -0.5 c -0.5 -0.1 -0.9 -0.2 -1.2 -0.3 c -0.2 -0.1 -0.4 -0.2 -0.5 -0.4 c -0.1 -0.2 -0.2 -0.4 -0.2 -0.6 c 0 -0.4 0.1 -0.6 0.4 -0.9 c 0.3 -0.2 0.7 -0.3 1.2 -0.3 c 0.5 0 1 0.1 1.4 0.3 c 0.4 0.2 0.7 0.5 0.9 0.9 c 0.1 0.3 0.2 0.7 0.2 1.3 z m 3.3 -3.9 v 10.7 h 1.3 V 20.8 Z m 3.4 9.2 v 1.5 h 1.3 v -1.5 z m 0 -9.2 v 7.8 h 1.3 v -7.8 z m 2.6 0 v 1.1 l 5 5.7 c -0.6 0 -1.1 0 -1.5 0 h -3.2 v 1.1 h 6.4 v -0.9 l -4.2 -4.9 l -0.8 -0.9 c 0.6 0 1.1 0.1 1.7 0.1 h 3.6 v -1.1 z m 13.3 1 c -0.5 -0.4 -1 -0.7 -1.4 -0.9 c -0.5 -0.2 -0.9 -0.3 -1.5 -0.3 c -0.9 0 -1.5 0.2 -2 0.6 c -0.5 0.4 -0.7 1 -0.7 1.6 c 0 0.4 0.1 0.7 0.3 1 c 0.2 0.3 0.4 0.6 0.7 0.8 c 0.3 0.2 0.6 0.3 1 0.4 c 0.3 0.1 0.6 0.1 1.2 0.2 c 1.1 0.1 1.9 0.3 2.4 0.5 c 0 0.2 0 0.3 0 0.3 c 0 0.5 -0.1 0.9 -0.4 1.1 c -0.3 0.3 -0.8 0.4 -1.5 0.4 c -0.6 0 -1.1 -0.1 -1.4 -0.3 c -0.3 -0.2 -0.5 -0.6 -0.7 -1.2 l -1.3 0.2 c 0.1 0.5 0.3 1 0.6 1.3 c 0.3 0.3 0.7 0.6 1.2 0.8 c 0.5 0.2 1.1 0.3 1.8 0.3 c 0.7 0 1.2 -0.1 1.6 -0.2 c 0.4 -0.2 0.7 -0.4 0.9 -0.6 c 0.2 -0.2 0.3 -0.5 0.4 -0.9 c 0 -0.2 0.1 -0.6 0.1 -1.2 V 24 c 0 -1.2 0 -2 0.1 -2.3 c 0.1 -0.3 0.2 -0.6 0.3 -0.9 h -1.4 c -0.1 0.3 -0.2 0.6 -0.3 1 z m -0.1 2.9 c -0.5 -0.2 -1.2 -0.4 -2.2 -0.5 c -0.5 -0.1 -0.9 -0.2 -1.2 -0.3 c -0.2 -0.1 -0.4 -0.2 -0.5 -0.4 c -0.1 -0.2 -0.2 -0.4 -0.2 -0.6 c 0 -0.4 0.1 -0.6 0.4 -0.9 c 0.3 -0.2 0.7 -0.3 1.2 -0.3 c 0.5 0 1 0.1 1.4 0.3 c 0.4 0.2 0.7 0.5 0.9 0.9 c 0.1 0.3 0.2 0.7 0.2 1.3 z m 8.4 -3.9 v 1 c -0.5 -0.8 -1.2 -1.2 -2.2 -1.2 c -0.6 0 -1.2 0.2 -1.7 0.5 c -0.5 0.3 -0.9 0.8 -1.2 1.4 c -0.3 0.6 -0.4 1.3 -0.4 2.1 c 0 0.8 0.1 1.5 0.4 2.1 c 0.3 0.6 0.6 1.1 1.2 1.5 c 0.5 0.3 1.1 0.5 1.7 0.5 c 0.5 0 0.9 -0.1 1.3 -0.3 c 0.4 -0.2 0.7 -0.5 0.9 -0.8 v 3.9 h 1.3 V 20.8 Z m -4.2 3.9 c 0 -1 0.2 -1.7 0.6 -2.2 c 0.4 -0.5 0.9 -0.7 1.5 -0.7 c 0.6 0 1.1 0.2 1.5 0.7 c 0.4 0.5 0.6 1.2 0.6 2.2 c 0 1.1 -0.2 1.8 -0.6 2.3 c -0.4 0.5 -0.9 0.7 -1.5 0.7 c -0.6 0 -1.1 -0.2 -1.5 -0.7 c -0.4 -0.5 -0.6 -1.2 -0.6 -2.3 z m 12.5 -2.9 c -0.5 -0.4 -1 -0.7 -1.4 -0.9 c -0.5 -0.2 -0.9 -0.3 -1.5 -0.3 c -0.9 0 -1.5 0.2 -2 0.6 c -0.5 0.4 -0.7 1 -0.7 1.6 c 0 0.4 0.1 0.7 0.3 1 c 0.2 0.3 0.4 0.6 0.7 0.8 c 0.3 0.2 0.6 0.3 1 0.4 c 0.3 0.1 0.6 0.1 1.2 0.2 c 1.1 0.1 1.9 0.3 2.4 0.5 c 0 0.2 0 0.3 0 0.3 c 0 0.5 -0.1 0.9 -0.4 1.1 c -0.3 0.3 -0.8 0.4 -1.5 0.4 c -0.6 0 -1.1 -0.1 -1.4 -0.3 c -0.3 -0.2 -0.5 -0.6 -0.7 -1.2 l -1.3 0.2 c 0.1 0.5 0.3 1 0.6 1.3 c 0.3 0.3 0.7 0.6 1.2 0.8 c 0.5 0.2 1.1 0.3 1.8 0.3 c 0.7 0 1.2 -0.1 1.6 -0.2 c 0.4 -0.2 0.7 -0.4 0.9 -0.6 c 0.2 -0.2 0.3 -0.5 0.4 -0.9 c 0 -0.2 0.1 -0.6 0.1 -1.2 V 24 c 0 -1.2 0 -2 0.1 -2.3 c 0.1 -0.3 0.2 -0.6 0.3 -0.9 h -1.4 c -0.1 0.3 -0.2 0.6 -0.3 1 z m -0.1 2.9 c -0.5 -0.2 -1.2 -0.4 -2.2 -0.5 c -0.5 -0.1 -0.9 -0.2 -1.2 -0.3 c -0.2 -0.1 -0.4 -0.2 -0.5 -0.4 c -0.1 -0.2 -0.2 -0.4 -0.2 -0.6 c 0 -0.4 0.1 -0.6 0.4 -0.9 c 0.3 -0.2 0.7 -0.3 1.2 -0.3 c 0.5 0 1 0.1 1.4 0.3 c 0.4 0.2 0.7 0.5 0.9 0.9 c 0.1 0.3 0.2 0.7 0.2 1.3 z" /><g
         transform="matrix(0,-0.8,0.9,0,0,0)"
         id="g22"><path
           id="path24"
           style="fill: #ffffff; fill-rule: evenodd; stroke: #e63135; stroke-width: 0.8; stroke-linecap: round; stroke-linejoin: round; stroke-dasharray: none; fill-opacity: 1; stroke-miterlimit: 2.61312604; stroke-opacity: 1"
           d="M -92.5 126.3 c 0.1 4.4 3.6 7.9 7.9 7.8 c 4.2 -0.1 7.6 -3.8 7.5 -8.2 c -0.1 -4.4 -3.6 -7.9 -7.9 -7.8 c -4.2 0.1 -7.6 3.8 -7.5 8.2 z m -15.2 118.9 l -2 -8.4 l 5.5 -1.5 c -5 -3.1 -8 -8.5 -8.2 -13.8 c -0.2 -5.3 3 -10.4 8.4 -12.6 c 10.3 -4.1 14 8.7 17.9 15.9 c 1.2 2.3 2.6 3.1 3.3 2.9 c 1.8 -0.6 1.6 -3.5 0.7 -6.4 c -0.9 -2.8 -1.9 -6.3 -7 -6.3 l -2.3 -8.6 l 16.7 -4.8 l 2.4 9.5 l -4.7 2.1 c 9.4 4.2 9.8 23.1 -1.2 27.5 c -8.4 3.4 -11.5 -2.1 -13.9 -9.6 c -0.9 -2.7 -3.4 -11.4 -6.9 -10 c -1.2 0.5 -1.9 2.5 -0.8 5.9 c 0.9 2.8 2.4 6.3 6.6 6.2 l 1.9 8.5 z m -9.9 -85.2 c 0.3 11.6 9.6 20.8 20.8 20.6 c 11.2 -0.3 20.1 -10 19.8 -21.6 c -0.3 -11.6 -9.6 -20.9 -20.8 -20.6 c -11.2 0.3 -20.1 10 -19.8 21.6 z m 12.5 -0.3 c 0.1 4.4 3.7 8 7.9 7.9 c 4.3 -0.1 7.7 -3.8 7.6 -8.2 c -0.1 -4.4 -3.7 -8 -7.9 -7.9 c -4.3 0.1 -7.7 3.8 -7.6 8.2 z m -10.4 -50.8 l 0.6 -8.6 l 5.7 0.4 c -3.8 -4.6 -5.1 -10.7 -3.7 -15.8 c 1.4 -5.1 6 -8.9 11.8 -9.2 c 11 -0.6 10.7 12.8 12.2 20.9 c 0.5 2.6 1.5 3.8 2.3 3.8 c 1.9 0 2.5 -2.9 2.5 -5.9 c 0 -2.9 0.1 -6.6 -4.8 -8.3 l 0.4 -8.9 l 17.3 0.9 l -0.6 9.8 l -5.1 0.5 c 7.6 7 2.3 25.1 -9.4 25.8 c -9 0.5 -10.3 -5.7 -10.3 -13.7 c 0 -2.9 0.2 -11.9 -3.5 -11.7 c -1.3 0.1 -2.6 1.8 -2.6 5.3 c 0 3 0.4 6.8 4.4 8.1 l -0.7 8.7 z m 24.6 82.6 c 0.1 4.4 3.6 7.9 7.9 7.8 c 4.2 -0.1 7.6 -3.8 7.5 -8.2 c -0.1 -4.4 -3.6 -7.9 -7.9 -7.8 c -4.2 0.1 -7.6 3.8 -7.5 8.2 z" /></g><path
         id="path26"
         style="fill: #ffffff; fill-rule: nonzero; stroke: none; fill-opacity: 1"
         d="M 79.7 47.7 l 1.5 -0.3 C 80.9 46.5 80.3 45.8 79.5 45.3 c -0.8 -0.5 -1.8 -0.7 -3 -0.7 c -1.2 0 -2.2 0.2 -3 0.6 c -0.8 0.4 -1.3 0.9 -1.7 1.6 c -0.4 0.7 -0.6 1.5 -0.6 2.3 c 0 0.9 0.2 1.7 0.7 2.3 c 0.5 0.7 1.1 1.2 1.9 1.5 c 0.8 0.3 1.7 0.5 2.7 0.5 c 1.1 0 2.1 -0.2 2.9 -0.7 c 0.8 -0.4 1.3 -1.1 1.6 -1.8 l -1.5 -0.3 c -0.3 0.6 -0.6 1.1 -1.1 1.4 c -0.5 0.3 -1.1 0.4 -1.9 0.4 c -0.9 0 -1.6 -0.2 -2.2 -0.5 c -0.6 -0.3 -1 -0.7 -1.2 -1.3 c -0.2 -0.5 -0.4 -1.1 -0.4 -1.6 c 0 -0.7 0.1 -1.4 0.4 -1.9 c 0.3 -0.5 0.7 -1 1.3 -1.2 c 0.6 -0.3 1.2 -0.4 1.9 -0.4 c 0.8 0 1.5 0.2 2.1 0.6 c 0.6 0.4 1 0.9 1.2 1.6 z m 8.8 -1 l 1.4 -0.1 c -0.2 -0.6 -0.6 -1.1 -1.3 -1.5 c -0.6 -0.4 -1.4 -0.5 -2.3 -0.5 c -1.2 0 -2.1 0.3 -2.9 0.8 c -0.7 0.6 -1.1 1.3 -1.1 2.4 c 0 1 0.4 1.9 1.1 2.4 c 0.7 0.6 1.6 0.9 2.8 0.9 c 1.1 0 2 -0.3 2.7 -0.9 c 0.7 -0.6 1 -1.4 1 -2.4 c 0 -0.1 0 -0.2 0 -0.3 h -6.1 c 0 -0.7 0.3 -1.2 0.8 -1.6 c 0.5 -0.4 1 -0.5 1.7 -0.5 c 0.5 0 0.9 0.1 1.3 0.3 c 0.4 0.2 0.6 0.5 0.9 1 z m -4.6 1.7 h 4.6 c -0.1 0.5 -0.2 0.9 -0.5 1.2 c -0.4 0.4 -1 0.6 -1.7 0.6 c -0.6 0 -1.2 -0.2 -1.6 -0.5 c -0.4 -0.3 -0.7 -0.8 -0.7 -1.3 z m 7.7 -3.7 v 8.6 h 1.4 v -8.6 z m 8.9 0 v 0.9 c -0.6 -0.7 -1.5 -1.1 -2.6 -1.1 c -0.5 0 -0.9 0.1 -1.4 0.2 c -0.4 0.1 -0.7 0.3 -0.9 0.5 c -0.2 0.2 -0.3 0.5 -0.4 0.8 c -0.1 0.2 -0.1 0.5 -0.1 1 v 3.9 h 1.4 v -3.5 c 0 -0.6 0 -0.9 0.1 -1.1 c 0.1 -0.3 0.3 -0.5 0.6 -0.7 c 0.3 -0.2 0.6 -0.2 1.1 -0.2 c 0.4 0 0.8 0.1 1.2 0.2 c 0.4 0.2 0.6 0.4 0.8 0.7 c 0.2 0.3 0.2 0.7 0.2 1.2 v 3.3 h 1.4 v -6.2 z m 3.4 0 v 8.6 h 1.4 v -8.6 z m 8.9 0.8 c -0.5 -0.3 -1 -0.6 -1.5 -0.7 c -0.5 -0.1 -1 -0.2 -1.5 -0.2 c -0.9 0 -1.6 0.2 -2.1 0.5 c -0.5 0.3 -0.7 0.8 -0.7 1.3 c 0 0.3 0.1 0.6 0.3 0.8 c 0.2 0.3 0.4 0.5 0.7 0.6 c 0.3 0.2 0.6 0.3 1 0.3 c 0.3 0.1 0.7 0.1 1.2 0.2 c 1.1 0.1 1.9 0.2 2.5 0.4 c 0 0.1 0 0.2 0 0.3 c 0 0.4 -0.1 0.7 -0.4 0.9 c -0.4 0.2 -0.9 0.4 -1.6 0.4 c -0.7 0 -1.1 -0.1 -1.4 -0.3 c -0.3 -0.2 -0.5 -0.5 -0.7 -0.9 l -1.4 0.1 c 0.1 0.4 0.3 0.8 0.6 1.1 c 0.3 0.3 0.7 0.5 1.2 0.6 c 0.5 0.1 1.2 0.2 1.9 0.2 c 0.7 0 1.3 -0.1 1.7 -0.2 c 0.4 -0.1 0.8 -0.3 1 -0.5 c 0.2 -0.2 0.3 -0.4 0.4 -0.7 c 0 -0.2 0.1 -0.5 0.1 -1 v -1.4 c 0 -1 0 -1.6 0.1 -1.9 c 0.1 -0.3 0.2 -0.5 0.4 -0.7 h -1.5 c -0.1 0.2 -0.2 0.5 -0.3 0.8 z m -0.1 2.4 c -0.5 -0.2 -1.3 -0.3 -2.3 -0.4 c -0.6 -0.1 -1 -0.1 -1.2 -0.2 c -0.2 -0.1 -0.4 -0.2 -0.5 -0.3 c -0.1 -0.1 -0.2 -0.3 -0.2 -0.5 c 0 -0.3 0.1 -0.5 0.4 -0.7 c 0.3 -0.2 0.7 -0.3 1.2 -0.3 c 0.5 0 1 0.1 1.4 0.3 c 0.4 0.2 0.7 0.4 0.9 0.7 c 0.2 0.2 0.2 0.6 0.2 1.1 z m 3.5 -3.1 v 6.2 h 1.2 v -0.9 c 0.3 0.4 0.6 0.7 0.9 0.9 c 0.3 0.1 0.6 0.2 0.9 0.2 c 0.5 0 0.9 -0.1 1.4 -0.3 l -0.5 -1 c -0.3 0.2 -0.7 0.2 -1 0.2 c -0.3 0 -0.6 -0.1 -0.8 -0.2 c -0.2 -0.1 -0.4 -0.3 -0.5 -0.6 c -0.2 -0.4 -0.2 -0.8 -0.2 -1.2 v -3.3 z m 10.9 2 l 1.4 -0.1 c -0.2 -0.6 -0.6 -1.1 -1.3 -1.5 c -0.6 -0.4 -1.4 -0.5 -2.3 -0.5 c -1.2 0 -2.1 0.3 -2.9 0.8 c -0.7 0.6 -1.1 1.3 -1.1 2.4 c 0 1 0.4 1.9 1.1 2.4 c 0.7 0.6 1.6 0.9 2.8 0.9 c 1.1 0 2 -0.3 2.7 -0.9 c 0.7 -0.6 1 -1.4 1 -2.4 c 0 -0.1 0 -0.2 0 -0.3 h -6.1 c 0.1 -0.7 0.3 -1.2 0.8 -1.6 c 0.5 -0.4 1 -0.5 1.7 -0.5 c 0.5 0 0.9 0.1 1.3 0.3 c 0.4 0.2 0.6 0.5 0.9 1 z m -4.6 1.7 h 4.6 c -0.1 0.5 -0.2 0.9 -0.5 1.2 c -0.4 0.4 -1 0.6 -1.7 0.6 c -0.6 0 -1.2 -0.2 -1.6 -0.5 c -0.4 -0.3 -0.7 -0.8 -0.7 -1.3 z m 7.2 -1.9 l 1.4 0.2 c 0.1 -0.4 0.3 -0.7 0.6 -1 c 0.4 -0.2 0.8 -0.3 1.5 -0.3 c 0.6 0 1.1 0.1 1.4 0.3 c 0.3 0.2 0.5 0.4 0.5 0.7 c 0 0.2 -0.1 0.4 -0.4 0.6 c -0.2 0.1 -0.7 0.2 -1.4 0.4 c -1 0.2 -1.7 0.4 -2.1 0.5 c -0.4 0.1 -0.7 0.3 -0.9 0.6 c -0.2 0.3 -0.3 0.5 -0.3 0.8 c 0 0.3 0.1 0.5 0.3 0.8 c 0.2 0.2 0.4 0.4 0.7 0.6 c 0.2 0.1 0.5 0.2 0.9 0.3 c 0.4 0.1 0.8 0.1 1.2 0.1 c 0.6 0 1.2 -0.1 1.7 -0.2 c 0.5 -0.1 0.8 -0.3 1.1 -0.6 c 0.2 -0.2 0.4 -0.6 0.5 -1 l -1.4 -0.1 c -0.1 0.3 -0.2 0.6 -0.5 0.8 c -0.3 0.2 -0.7 0.3 -1.3 0.3 c -0.6 0 -1.1 -0.1 -1.4 -0.2 c -0.3 -0.2 -0.4 -0.3 -0.4 -0.6 c 0 -0.1 0.1 -0.3 0.2 -0.4 c 0.1 -0.1 0.3 -0.2 0.5 -0.3 c 0.1 0 0.5 -0.1 1.2 -0.3 c 1 -0.2 1.7 -0.4 2.1 -0.5 c 0.4 -0.1 0.7 -0.3 0.9 -0.6 c 0.2 -0.2 0.3 -0.5 0.3 -0.9 c 0 -0.4 -0.1 -0.7 -0.4 -1 c -0.3 -0.3 -0.7 -0.6 -1.2 -0.7 c -0.5 -0.2 -1.1 -0.3 -1.7 -0.3 c -1.1 0 -1.9 0.2 -2.4 0.5 c -0.6 0.3 -0.9 0.8 -1.1 1.5 z m 18.5 0.1 l 1.4 -0.1 c -0.2 -0.6 -0.6 -1.1 -1.3 -1.5 c -0.6 -0.4 -1.4 -0.5 -2.3 -0.5 c -1.2 0 -2.1 0.3 -2.9 0.8 c -0.7 0.6 -1.1 1.3 -1.1 2.4 c 0 1 0.4 1.9 1.1 2.4 c 0.7 0.6 1.6 0.9 2.8 0.9 c 1.1 0 2 -0.3 2.7 -0.9 c 0.7 -0.6 1 -1.4 1 -2.4 c 0 -0.1 0 -0.2 0 -0.3 h -6.1 c 0.1 -0.7 0.3 -1.2 0.8 -1.6 c 0.5 -0.4 1 -0.5 1.7 -0.5 c 0.5 0 0.9 0.1 1.3 0.3 c 0.4 0.2 0.6 0.5 0.9 1 z m -4.6 1.7 h 4.6 c -0.1 0.5 -0.2 0.9 -0.5 1.2 c -0.4 0.4 -1 0.6 -1.7 0.6 c -0.6 0 -1.2 -0.2 -1.6 -0.5 c -0.4 -0.3 -0.7 -0.8 -0.7 -1.3 z m 10.2 -3.7 l 4.3 8.6 h 1.6 l 4.6 -8.6 h -1.7 l -1.3 2.6 h -4.7 l -1.2 -2.6 z m 3.3 3.5 h 3.8 l -1.2 2.4 c -0.4 0.7 -0.6 1.3 -0.8 1.8 c -0.1 -0.6 -0.3 -1.1 -0.6 -1.6 z m 13.7 -1.2 l 1.4 -0.1 c -0.1 -0.7 -0.5 -1.3 -1.1 -1.7 c -0.6 -0.4 -1.4 -0.6 -2.3 -0.6 c -1.1 0 -2 0.3 -2.7 0.8 c -0.7 0.6 -1 1.4 -1 2.4 c 0 0.7 0.1 1.3 0.4 1.8 c 0.3 0.5 0.7 0.9 1.3 1.1 c 0.6 0.3 1.3 0.4 2 0.4 c 0.9 0 1.6 -0.2 2.2 -0.5 c 0.6 -0.3 0.9 -0.8 1.1 -1.5 l -1.4 -0.2 c -0.1 0.4 -0.4 0.7 -0.7 0.9 c -0.3 0.2 -0.7 0.3 -1.2 0.3 c -0.7 0 -1.3 -0.2 -1.7 -0.6 c -0.4 -0.4 -0.7 -1 -0.7 -1.8 c 0 -0.8 0.2 -1.4 0.6 -1.8 c 0.4 -0.4 1 -0.6 1.7 -0.6 c 0.5 0 1 0.1 1.4 0.4 c 0.4 0.3 0.6 0.6 0.7 1.2 z m 8.2 -0.3 l 1.4 -0.1 c -0.2 -0.6 -0.6 -1.1 -1.3 -1.5 c -0.6 -0.4 -1.4 -0.5 -2.3 -0.5 c -1.2 0 -2.1 0.3 -2.9 0.8 c -0.7 0.6 -1.1 1.3 -1.1 2.4 c 0 1 0.4 1.9 1.1 2.4 c 0.7 0.6 1.6 0.9 2.8 0.9 c 1.1 0 2 -0.3 2.7 -0.9 c 0.7 -0.6 1 -1.4 1 -2.4 c 0 -0.1 0 -0.2 0 -0.3 h -6.1 c 0 -0.7 0.3 -1.2 0.8 -1.6 c 0.5 -0.4 1 -0.5 1.7 -0.5 c 0.5 0 0.9 0.1 1.3 0.3 c 0.4 0.2 0.6 0.5 0.9 1 z m -4.6 1.7 h 4.6 c -0.1 0.5 -0.2 0.9 -0.5 1.2 c -0.4 0.4 -1 0.6 -1.7 0.6 c -0.6 0 -1.2 -0.2 -1.6 -0.5 c -0.4 -0.3 -0.7 -0.8 -0.7 -1.3 z m 7.2 -1.9 l 1.4 0.2 c 0.1 -0.4 0.3 -0.7 0.6 -1 c 0.4 -0.2 0.8 -0.3 1.5 -0.3 c 0.6 0 1.1 0.1 1.4 0.3 c 0.3 0.2 0.5 0.4 0.5 0.7 c 0 0.2 -0.1 0.4 -0.4 0.6 c -0.2 0.1 -0.7 0.2 -1.4 0.4 c -1 0.2 -1.7 0.4 -2.1 0.5 c -0.4 0.1 -0.7 0.3 -0.9 0.6 c -0.2 0.3 -0.3 0.5 -0.3 0.8 c 0 0.3 0.1 0.5 0.3 0.8 c 0.2 0.2 0.4 0.4 0.7 0.6 c 0.2 0.1 0.5 0.2 0.9 0.3 c 0.4 0.1 0.8 0.1 1.2 0.1 c 0.6 0 1.2 -0.1 1.7 -0.2 c 0.5 -0.1 0.8 -0.3 1.1 -0.6 c 0.2 -0.2 0.4 -0.6 0.5 -1 l -1.4 -0.1 c -0.1 0.3 -0.2 0.6 -0.5 0.8 c -0.3 0.2 -0.7 0.3 -1.3 0.3 c -0.6 0 -1.1 -0.1 -1.4 -0.2 c -0.3 -0.2 -0.4 -0.3 -0.4 -0.6 c 0 -0.1 0.1 -0.3 0.2 -0.4 c 0.1 -0.1 0.3 -0.2 0.5 -0.3 c 0.1 0 0.5 -0.1 1.2 -0.3 c 1 -0.2 1.7 -0.4 2.1 -0.5 c 0.4 -0.1 0.7 -0.3 0.9 -0.6 c 0.2 -0.2 0.3 -0.5 0.3 -0.9 c 0 -0.4 -0.1 -0.7 -0.4 -1 c -0.3 -0.3 -0.7 -0.6 -1.2 -0.7 c -0.5 -0.2 -1.1 -0.3 -1.7 -0.3 c -1.1 0 -1.9 0.2 -2.4 0.5 c -0.6 0.3 -0.9 0.8 -1.1 1.5 z m 7.9 0 l 1.4 0.2 c 0.1 -0.4 0.3 -0.7 0.6 -1 c 0.4 -0.2 0.8 -0.3 1.5 -0.3 c 0.6 0 1.1 0.1 1.4 0.3 c 0.3 0.2 0.5 0.4 0.5 0.7 c 0 0.2 -0.1 0.4 -0.4 0.6 c -0.2 0.1 -0.7 0.2 -1.4 0.4 c -1 0.2 -1.7 0.4 -2.1 0.5 c -0.4 0.1 -0.7 0.3 -0.9 0.6 c -0.2 0.3 -0.3 0.5 -0.3 0.8 c 0 0.3 0.1 0.5 0.3 0.8 c 0.2 0.2 0.4 0.4 0.7 0.6 c 0.2 0.1 0.5 0.2 0.9 0.3 c 0.4 0.1 0.8 0.1 1.2 0.1 c 0.6 0 1.2 -0.1 1.7 -0.2 c 0.5 -0.1 0.8 -0.3 1.1 -0.6 c 0.2 -0.2 0.4 -0.6 0.5 -1 l -1.4 -0.1 c -0.1 0.3 -0.2 0.6 -0.5 0.8 c -0.3 0.2 -0.7 0.3 -1.3 0.3 c -0.6 0 -1.1 -0.1 -1.4 -0.2 c -0.3 -0.2 -0.4 -0.3 -0.4 -0.6 c 0 -0.1 0.1 -0.3 0.2 -0.4 c 0.1 -0.1 0.3 -0.2 0.5 -0.3 c 0.1 0 0.5 -0.1 1.2 -0.3 c 1 -0.2 1.7 -0.4 2.1 -0.5 c 0.4 -0.1 0.7 -0.3 0.9 -0.6 c 0.2 -0.2 0.3 -0.5 0.3 -0.9 c 0 -0.4 -0.1 -0.7 -0.4 -1 c -0.3 -0.3 -0.7 -0.6 -1.2 -0.7 c -0.5 -0.2 -1.1 -0.3 -1.7 -0.3 c -1.1 0 -1.9 0.2 -2.4 0.5 c -0.6 0.3 -0.9 0.8 -1.1 1.5 z m 7.9 1.3 c 0 1.2 0.4 2 1.3 2.6 c 0.7 0.5 1.6 0.7 2.6 0.7 c 1.1 0 2 -0.3 2.8 -0.8 c 0.7 -0.6 1.1 -1.3 1.1 -2.3 c 0 -0.8 -0.2 -1.4 -0.5 -1.9 c -0.3 -0.5 -0.8 -0.8 -1.4 -1.1 c -0.6 -0.3 -1.3 -0.4 -2 -0.4 c -1.1 0 -2.1 0.3 -2.8 0.8 c -0.7 0.6 -1.1 1.4 -1.1 2.4 z m 1.4 0 c 0 -0.8 0.2 -1.4 0.7 -1.8 c 0.5 -0.4 1 -0.6 1.7 -0.6 c 0.7 0 1.3 0.2 1.7 0.6 c 0.5 0.4 0.7 1 0.7 1.8 c 0 0.8 -0.2 1.4 -0.7 1.8 c -0.5 0.4 -1 0.6 -1.7 0.6 c -0.7 0 -1.3 -0.2 -1.7 -0.6 c -0.5 -0.4 -0.7 -1 -0.7 -1.8 z m 1.6 3.9 l 1 1.6 h 1.8 l -1.7 -1.6 z m 6.2 -7 v 6.2 h 1.2 v -0.9 c 0.3 0.4 0.6 0.7 0.9 0.9 c 0.3 0.1 0.6 0.2 0.9 0.2 c 0.5 0 0.9 -0.1 1.4 -0.3 l -0.5 -1 c -0.3 0.2 -0.7 0.2 -1 0.2 c -0.3 0 -0.6 -0.1 -0.8 -0.2 c -0.2 -0.1 -0.4 -0.3 -0.5 -0.6 c -0.2 -0.4 -0.2 -0.8 -0.2 -1.2 v -3.3 z m 5.3 7.4 v 1.2 h 1.4 v -1.2 z m 0 -7.4 v 6.2 h 1.4 v -6.2 z m 3 3.1 c 0 1.2 0.4 2 1.3 2.6 c 0.7 0.5 1.6 0.7 2.6 0.7 c 1.1 0 2 -0.3 2.8 -0.8 c 0.7 -0.6 1.1 -1.3 1.1 -2.3 c 0 -0.8 -0.2 -1.4 -0.5 -1.9 c -0.3 -0.5 -0.8 -0.8 -1.4 -1.1 c -0.6 -0.3 -1.3 -0.4 -2 -0.4 c -1.1 0 -2.1 0.3 -2.8 0.8 c -0.7 0.6 -1.1 1.4 -1.1 2.4 z m 1.4 0 c 0 -0.8 0.2 -1.4 0.7 -1.8 c 0.5 -0.4 1 -0.6 1.7 -0.6 c 0.7 0 1.3 0.2 1.7 0.6 c 0.5 0.4 0.7 1 0.7 1.8 c 0 0.8 -0.2 1.4 -0.7 1.8 c -0.5 0.4 -1 0.6 -1.7 0.6 c -0.7 0 -1.3 -0.2 -1.7 -0.6 c -0.5 -0.4 -0.7 -1 -0.7 -1.8 z m 7.3 -1.3 l 1.4 0.2 c 0.1 -0.4 0.3 -0.7 0.6 -1 c 0.4 -0.2 0.8 -0.3 1.5 -0.3 c 0.6 0 1.1 0.1 1.4 0.3 c 0.3 0.2 0.5 0.4 0.5 0.7 c 0 0.2 -0.1 0.4 -0.4 0.6 c -0.2 0.1 -0.7 0.2 -1.4 0.4 c -1 0.2 -1.7 0.4 -2.1 0.5 c -0.4 0.1 -0.7 0.3 -0.9 0.6 c -0.2 0.3 -0.3 0.5 -0.3 0.8 c 0 0.3 0.1 0.5 0.3 0.8 c 0.2 0.2 0.4 0.4 0.7 0.6 c 0.2 0.1 0.5 0.2 0.9 0.3 c 0.4 0.1 0.8 0.1 1.2 0.1 c 0.6 0 1.2 -0.1 1.7 -0.2 c 0.5 -0.1 0.8 -0.3 1.1 -0.6 c 0.2 -0.2 0.4 -0.6 0.5 -1 l -1.4 -0.1 c -0.1 0.3 -0.2 0.6 -0.5 0.8 c -0.3 0.2 -0.7 0.3 -1.3 0.3 c -0.6 0 -1.1 -0.1 -1.4 -0.2 c -0.3 -0.2 -0.4 -0.3 -0.4 -0.6 c 0 -0.1 0.1 -0.3 0.2 -0.4 c 0.1 -0.1 0.3 -0.2 0.5 -0.3 c 0.1 0 0.5 -0.1 1.2 -0.3 c 1 -0.2 1.7 -0.4 2.1 -0.5 c 0.4 -0.1 0.7 -0.3 0.9 -0.6 c 0.2 -0.2 0.3 -0.5 0.3 -0.9 c 0 -0.4 -0.1 -0.7 -0.4 -1 c -0.3 -0.3 -0.7 -0.6 -1.2 -0.7 c -0.5 -0.2 -1.1 -0.3 -1.7 -0.3 c -1.1 0 -1.9 0.2 -2.4 0.5 c -0.6 0.3 -0.9 0.8 -1.1 1.5" /><path
         id="path28"
         style="fill: #e63135; fill-rule: evenodd; stroke: none; fill-opacity: 1"
         d="M 1.3 78.6 l 19.4 1.9 l -2.4 18.1 l 20.2 1.9 l 2.3 -18 l 19.6 1.9 L 62.5 66.1 L 43.2 64.2 L 45.7 45.2 L 25.6 43.5 L 23.2 62.2 L 3.3 60.3 Z" /><path
         id="path30"
         style="fill: #8f2a2a; fill-rule: evenodd; stroke: none; fill-opacity: 1"
         d="M 15.1 95.5 l 3.3 3.1 l 2.4 -18.1 l -3.8 -0.4 z m 26.9 -53.3 l -19.5 -1.4 l -2.7 18.5 l -19.7 -1.8 l -2.2 18.3 l 3.4 2.7 l 2 -18.3 l 19.8 1.9 l 2.5 -18.7 l 20.1 1.7 z m 1.2 21.9 l 0.4 -2.7 l 16.6 1.5 l 2.3 3.1 z" /><g
         transform="matrix(0,0.8,-0.9,0,0,0)"
         id="g32"><path
           id="path34"
           style="fill: none; stroke: #ffffff; stroke-width: 1.1; stroke-linecap: round; stroke-linejoin: round; stroke-dasharray: none; stroke-miterlimit: 2.61312604; stroke-opacity: 1"
           d="M 83.5 -19 c -2.5 0.4 -2.5 -3.4 0.6 -3 c -2.4 -0.2 -5.8 -0.5 -4.9 2.4" /></g><g
         transform="matrix(0,0.8,-0.9,0,0,0)"
         id="g36"><path
           id="path38"
           style="fill: none; stroke: #ffffff; stroke-width: 1.1; stroke-linecap: round; stroke-linejoin: round; stroke-dasharray: none; stroke-miterlimit: 2.61312604; stroke-opacity: 1"
           d="M 82.9 -14.7 l -2.6 0.1 c -0.6 0.1 -0.8 -0.5 -0.9 -1.3 c -0.1 -1.7 3 -2.6 2.3 1.1 c 0.1 -2.5 2.1 -2.4 2.1 -1.2 c 0 1.2 -0.3 1.2 -1 1.2 z" /></g><g
         transform="matrix(0,0.8,-0.9,0,0,0)"
         id="g40"><path
           id="path42"
           style="fill: none; stroke: #ffffff; stroke-width: 1.1; stroke-linecap: round; stroke-linejoin: round; stroke-dasharray: none; stroke-miterlimit: 2.61312604; stroke-opacity: 1"
           d="M 85.6 -42.1 l -2.6 0.3 c -0.6 0.1 -0.9 -0.5 -0.9 -1.3 c -0.1 -1.6 2.9 -2.8 2.3 1 c 0 -2.5 2 -2.5 2.1 -1.3 c 0.1 1.2 -0.2 1.2 -0.9 1.3 z" /></g><g
         transform="matrix(0,0.8,-0.9,0,0,0)"
         id="g44"><path
           id="path46"
           style="fill: none; stroke: #ffffff; stroke-width: 1.1; stroke-linecap: round; stroke-linejoin: round; stroke-dasharray: none; stroke-miterlimit: 2.61312604; stroke-opacity: 1"
           d="M 86 -26.4 l -5.4 -0.4" /></g><g
         transform="matrix(0,0.8,-0.9,0,0,0)"
         id="g48"><path
           id="path50"
           style="fill: none; stroke: #ffffff; stroke-width: 1.1; stroke-linecap: round; stroke-linejoin: round; stroke-dasharray: none; stroke-miterlimit: 2.61312604; stroke-opacity: 1"
           d="M 86.6 -30.1 l -4.9 -0.4" /></g><g
         transform="matrix(0,0.8,-0.9,0,0,0)"
         id="g52"><path
           id="path54"
           style="fill: none; stroke: #ffffff; stroke-width: 1.1; stroke-linecap: round; stroke-linejoin: round; stroke-dasharray: none; stroke-miterlimit: 2.61312604; stroke-opacity: 1"
           d="M 82.9 -25.5 l 0.6 -4.8" /></g><g
         transform="matrix(0,0.8,-0.9,0,0,0)"
         id="g56"><path
           id="path58"
           style="fill: none; stroke: #ffffff; stroke-width: 1.1; stroke-linecap: round; stroke-linejoin: round; stroke-dasharray: none; stroke-miterlimit: 2.61312604; stroke-opacity: 1"
           d="M 81.6 -32.4 l 4.7 -1.2 l -4.6 -2" /></g><g
         transform="matrix(0,0.8,-0.9,0,0,0)"
         id="g60"><path
           id="path62"
           style="fill: none; stroke: #ffffff; stroke-width: 1.1; stroke-linecap: round; stroke-linejoin: round; stroke-dasharray: none; stroke-miterlimit: 2.61312604; stroke-opacity: 1"
           d="M 82.7 -33 l 0.2 -1.8" /></g><g
         transform="matrix(0,0.8,-0.9,0,0,0)"
         id="g64"><path
           id="path66"
           style="fill: none; stroke: #ffffff; stroke-width: 1.1; stroke-linecap: round; stroke-linejoin: round; stroke-dasharray: none; stroke-miterlimit: 2.61312604; stroke-opacity: 1"
           d="M 85.8 -36.4 c -2.4 0.3 -3.3 -0.9 -3.2 -2.1 c 0.2 -1.1 1.3 -1.6 3.5 -1.3" /></g><g
         transform="matrix(0,0.8,-0.9,0,0,0)"
         id="g68"><path
           id="path70"
           style="fill: none; stroke: #ffffff; stroke-width: 1.1; stroke-linecap: round; stroke-linejoin: round; stroke-dasharray: none; stroke-miterlimit: 2.61312604; stroke-opacity: 1"
           d="M 85.4 -46.6 c 0.1 -2.4 2.3 -2 2.4 -0.9 c 0.1 0.8 -0.5 1.3 -2.2 1.2 c -2.2 -0.1 -2.4 -2.1 -1.1 -2.6" /></g><g
         transform="matrix(0,0.8,-0.9,0,0,0)"
         id="g72"><path
           id="path74"
           style="fill: none; stroke: #ffffff; stroke-width: 1.1; stroke-linecap: round; stroke-linejoin: round; stroke-dasharray: none; stroke-miterlimit: 2.61312604; stroke-opacity: 1"
           d="M 82.7 -50.6 l 4.4 0.1 c 1.7 -2.7 -2.2 -2.8 -2.2 -0.5 l -1.7 -2" /></g><g
         transform="matrix(0,0.8,-0.9,0,0,0)"
         id="g76"><path
           id="path78"
           style="fill: none; stroke: #ffffff; stroke-width: 1.1; stroke-linecap: round; stroke-linejoin: round; stroke-dasharray: none; stroke-miterlimit: 2.61312604; stroke-opacity: 1"
           d="M 88.1 -56.4 l -0.2 2.2" /></g><g
         transform="matrix(0,0.8,-0.9,0,0,0)"
         id="g80"><path
           id="path82"
           style="fill: none; stroke: #ffffff; stroke-width: 1.1; stroke-linecap: round; stroke-linejoin: round; stroke-dasharray: none; stroke-miterlimit: 2.61312604; stroke-opacity: 1"
           d="M 85.2 -55.2 l 3.6 0" /></g><path
         id="path84"
         style="fill: #e63135; fill-rule: evenodd; stroke: none; fill-opacity: 1"
         d="M 1.3 78.6 l 19.4 1.9 l -2.4 18.1 l 20.2 1.9 l 2.3 -18 l 19.6 1.9 L 62.5 66.1 L 43.2 64.2 L 45.7 45.2 L 25.6 43.5 L 23.2 62.2 L 3.3 60.3 Z" /><path
         id="path86"
         style="fill: #8f2a2a; fill-rule: evenodd; stroke: none; fill-opacity: 1"
         d="M 15.1 95.5 l 3.3 3.1 l 2.4 -18.1 l -3.8 -0.4 z m 26.9 -53.3 l -19.5 -1.4 l -2.7 18.5 l -19.7 -1.8 l -2.2 18.3 l 3.4 2.7 l 2 -18.3 l 19.8 1.9 l 2.5 -18.7 l 20.1 1.7 z m 1.2 21.9 l 0.4 -2.7 l 16.6 1.5 l 2.3 3.1 z" /><g
         transform="matrix(0,0.8,-0.9,0,0,0)"
         id="g88"><path
           id="path90"
           style="fill: none; stroke: #ffffff; stroke-width: 1.1; stroke-linecap: round; stroke-linejoin: round; stroke-dasharray: none; stroke-miterlimit: 2.61312604; stroke-opacity: 1"
           d="M 83.5 -19 c -2.5 0.4 -2.5 -3.4 0.6 -3 c -2.4 -0.2 -5.8 -0.5 -4.9 2.4" /></g><g
         transform="matrix(0,0.8,-0.9,0,0,0)"
         id="g92"><path
           id="path94"
           style="fill: none; stroke: #ffffff; stroke-width: 1.1; stroke-linecap: round; stroke-linejoin: round; stroke-dasharray: none; stroke-miterlimit: 2.61312604; stroke-opacity: 1"
           d="M 82.9 -14.7 l -2.6 0.1 c -0.6 0.1 -0.8 -0.5 -0.9 -1.3 c -0.1 -1.7 3 -2.6 2.3 1.1 c 0.1 -2.5 2.1 -2.4 2.1 -1.2 c 0 1.2 -0.3 1.2 -1 1.2 z" /></g><g
         transform="matrix(0,0.8,-0.9,0,0,0)"
         id="g96"><path
           id="path98"
           style="fill: none; stroke: #ffffff; stroke-width: 1.1; stroke-linecap: round; stroke-linejoin: round; stroke-dasharray: none; stroke-miterlimit: 2.61312604; stroke-opacity: 1"
           d="M 85.6 -42.1 l -2.6 0.3 c -0.6 0.1 -0.9 -0.5 -0.9 -1.3 c -0.1 -1.6 2.9 -2.8 2.3 1 c 0 -2.5 2 -2.5 2.1 -1.3 c 0.1 1.2 -0.2 1.2 -0.9 1.3 z" /></g><g
         transform="matrix(0,0.8,-0.9,0,0,0)"
         id="g100"><path
           id="path102"
           style="fill: none; stroke: #ffffff; stroke-width: 1.1; stroke-linecap: round; stroke-linejoin: round; stroke-dasharray: none; stroke-miterlimit: 2.61312604; stroke-opacity: 1"
           d="M 86 -26.4 l -5.4 -0.4" /></g><g
         transform="matrix(0,0.8,-0.9,0,0,0)"
         id="g104"><path
           id="path106"
           style="fill: none; stroke: #ffffff; stroke-width: 1.1; stroke-linecap: round; stroke-linejoin: round; stroke-dasharray: none; stroke-miterlimit: 2.61312604; stroke-opacity: 1"
           d="M 86.6 -30.1 l -4.9 -0.4" /></g><g
         transform="matrix(0,0.8,-0.9,0,0,0)"
         id="g108"><path
           id="path110"
           style="fill: none; stroke: #ffffff; stroke-width: 1.1; stroke-linecap: round; stroke-linejoin: round; stroke-dasharray: none; stroke-miterlimit: 2.61312604; stroke-opacity: 1"
           d="M 82.9 -25.5 l 0.6 -4.8" /></g><g
         transform="matrix(0,0.8,-0.9,0,0,0)"
         id="g112"><path
           id="path114"
           style="fill: none; stroke: #ffffff; stroke-width: 1.1; stroke-linecap: round; stroke-linejoin: round; stroke-dasharray: none; stroke-miterlimit: 2.61312604; stroke-opacity: 1"
           d="M 81.6 -32.4 l 4.7 -1.2 l -4.6 -2" /></g><g
         transform="matrix(0,0.8,-0.9,0,0,0)"
         id="g116"><path
           id="path118"
           style="fill: none; stroke: #ffffff; stroke-width: 1.1; stroke-linecap: round; stroke-linejoin: round; stroke-dasharray: none; stroke-miterlimit: 2.61312604; stroke-opacity: 1"
           d="M 82.7 -33 l 0.2 -1.8" /></g><g
         transform="matrix(0,0.8,-0.9,0,0,0)"
         id="g120"><path
           id="path122"
           style="fill: none; stroke: #ffffff; stroke-width: 1.1; stroke-linecap: round; stroke-linejoin: round; stroke-dasharray: none; stroke-miterlimit: 2.61312604; stroke-opacity: 1"
           d="M 85.8 -36.4 c -2.4 0.3 -3.3 -0.9 -3.2 -2.1 c 0.2 -1.1 1.3 -1.6 3.5 -1.3" /></g><g
         transform="matrix(0,0.8,-0.9,0,0,0)"
         id="g124"><path
           id="path126"
           style="fill: none; stroke: #ffffff; stroke-width: 1.1; stroke-linecap: round; stroke-linejoin: round; stroke-dasharray: none; stroke-miterlimit: 2.61312604; stroke-opacity: 1"
           d="M 85.4 -46.6 c 0.1 -2.4 2.3 -2 2.4 -0.9 c 0.1 0.8 -0.5 1.3 -2.2 1.2 c -2.2 -0.1 -2.4 -2.1 -1.1 -2.6" /></g><g
         transform="matrix(0,0.8,-0.9,0,0,0)"
         id="g128"><path
           id="path130"
           style="fill: none; stroke: #ffffff; stroke-width: 1.1; stroke-linecap: round; stroke-linejoin: round; stroke-dasharray: none; stroke-miterlimit: 2.61312604; stroke-opacity: 1"
           d="M 82.7 -50.6 l 4.4 0.1 c 1.7 -2.7 -2.2 -2.8 -2.2 -0.5 l -1.7 -2" /></g><g
         transform="matrix(0,0.8,-0.9,0,0,0)"
         id="g132"><path
           id="path134"
           style="fill: none; stroke: #ffffff; stroke-width: 1.1; stroke-linecap: round; stroke-linejoin: round; stroke-dasharray: none; stroke-miterlimit: 2.61312604; stroke-opacity: 1"
           d="M 88.1 -56.4 l -0.2 2.2" /></g><g
         transform="matrix(0,0.8,-0.9,0,0,0)"
         id="g136"><path
           id="path138"
           style="fill: none; stroke: #ffffff; stroke-width: 1.1; stroke-linecap: round; stroke-linejoin: round; stroke-dasharray: none; stroke-miterlimit: 2.61312604; stroke-opacity: 1"
           d="M 85.2 -55.2 l 3.6 0" /></g></g></g></svg>